<svg version="1.1" id="Layer_1" xmlns="http://www.w3.org/2000/svg"
    xmlns:xlink="http://www.w3.org/1999/xlink" x="0px" y="0px"
    viewBox="0 0 500 500" style="enable-background:new 0 0 500 500;" xml:space="preserve">
<style type="text/css">
	.st0{fill:#0284C7;}
	.st1{fill:#0284C7;}
    .st2{font-family:'Arial';font-size:30px;fill:#0284C7;}
</style>
<path class="st0" d="M447.3,223.6c-17.2-40.6-45.7-72.5-80.3-99.1c-44.1-33.8-93-56.7-148.4-64.2c-41.4-5.6-81.4-1.9-117.2,22.1
	c-27.9,18.7-42.2,47.1-51.5,77.9c-38.3,126.9,44,257.8,175.1,279.1c11.4,1.8,22.8,3,34.5,2.5c65.6-1.3,121.3-25,164.6-74.8
	c16.3-18.8,29.7-39.8,33.9-65.4C462.4,274.5,457.8,248.5,447.3,223.6z M386.8,367.1c-19.4,8.5-39.8,11-62.2,11.6
	c-10.5-0.6-22.5-1.2-34.4-3.4c-66-12.6-121.9-43.9-168.1-92.4c-24.2-25.4-42.4-54.6-49.2-89.7c-10-51.3,15.4-94.1,65-110.3
	c27.2-8.9,54.9-9.3,82.8-4.7C276.3,87.4,325,111.9,368,148c34.4,28.9,61.6,63.2,72.5,107.8C452.2,303.9,432,347.4,386.8,367.1z"/>
<path class="st1" d="M234.4,207.7c2.9-0.4,7-0.1,7.8-3.5c0.8-3.3-2.8-5.2-5.3-6.8c-36.2-23.2-73-45.3-111.7-64.1
	c-7.1-3.5-12.1-2-16.2,4.5c-6.9,11-13,22.1-12.3,34.3c0.2,16.2,5.9,29.3,12.8,41.9c3.6,6.6,10.2,7.3,16.8,6.6
	c21.3-2.3,42.7-4.6,64-7.2C205,211.7,219.7,209.8,234.4,207.7z M186.4,191.3c1.4-5,5.7-6.2,10.4-5.8c5.1,0.5,10,2.2,14.5,4.6
	c4.5,2.3,11.6,4.3,10.6,9.6c-1.3,6.4-8.9,3.8-12.6,4.4c-6.4,0.1-11.5-0.3-16.3-2.2C188.3,200.1,184.9,196.8,186.4,191.3z
	 M398.2,290.3c-33.1-21.7-66.6-42.9-102.5-59.8c-2.4-1.1-5.5-3.5-7.8-1.4c-2.4,2.2,0.2,5.3,1.2,7.6c13.1,30.2,25.9,60.6,37.6,91.4
	c3.7,9.6,9.8,16.8,24,16.6c19-3.4,39.6-8.8,52.1-29.3C409.2,304.7,408.4,297,398.2,290.3z M319.3,270.3c-0.7-0.1-2-0.2-3.2-0.6
	c-6.6-2.3-17.6-20.1-16.7-27c0.4-2.9,1.9-3.8,4.8-3.4c6.8,1.1,20.8,14,22.3,20.7C327.8,266.2,325.2,270.3,319.3,270.3z M283,252.1
	c-3-6.8-5.8-13.6-9-20.4c-3.6-7.7-6.8-8.1-11.6-0.9c-7.4,11-14.6,22.3-21.5,33.6c-6.6,11-12.9,22.1-18.9,33.4
	c-5.8,10.8-4.3,16.8,5.7,23.5c19.4,13,40.5,20.7,64.2,20.5c4.8-0.4,9.7-0.5,14.5-1.3c9.3-1.6,10.8-4.4,7.6-13.2
	C304.4,301.9,293.8,276.9,283,252.1z M272.1,273.9c-1.2,4.6-3.6,8.8-9.3,8.4c-5.8-0.5-7.4-5.3-7.5-9.9c-0.2-8.8,2.7-17.1,7.2-24.5
	c2.4-3.9,5.3-3.4,7.5,0.6c2.5,4.6,2.6,9.8,3,14.9C272.8,266.8,273,270.5,272.1,273.9z M246.7,216.4c-9.5,2.2-19.9,3.5-30.3,4.5
	c-25.2,2.6-50.4,5.3-75.5,8c-7.9,0.8-10.1,3.7-7.2,10.4c10,23.2,23.4,43.7,45.2,57.6c3.4,2.2,7.1,4.1,10.9,5.6
	c9.7,4,14.5,2.9,20.7-5.4c16.5-22.3,29.1-46.9,41.2-71.7C253.7,221.2,254.7,216.7,246.7,216.4z M238.2,232.2
	c-1.8,6.6-17.6,19.5-24.2,19.6c-3.3,0-6.1-1-7.7-4c-1.7-3.3-0.9-6.6,1.6-9.2c7.1-7.3,16.2-10.5,26-11.6
	C237.1,226.6,239.3,228.3,238.2,232.2z M140.4,126.2c35.6,23.3,72,45.1,110.2,63.9c0.4,0.2,1,0.1,3,0.3
	c-11.1-19.1-21.6-37.2-32.2-55.2c-6.5-11-13.4-21.8-20-32.8c-1.9-3.2-4.1-6.2-7.9-6.8c-13.7-2.3-27.4-3.8-40.9,1.2
	c-10.1,3.7-14.3,11.8-15.9,21.7C136.1,121.8,137.6,124.4,140.4,126.2z M212,149.2c2.6-2.2,5.9-2.3,8.6-0.6
	c7.6,4.9,12,12.4,14.8,20.7c1,3-0.6,4.9-4,4.8c-6.2-0.2-20.4-12-21.6-18C209.2,153.4,209.9,150.9,212,149.2z M411.6,224.9
	c-3.1-6.3-8.8-10.6-16-10.4c-34.6,1-69.1-2-104.1,0.1c19.5,11.7,38.9,23.4,58.4,35c15.8,9.4,31.7,18.7,47.7,27.9
	c14.2,8.2,20.8,4.7,22.8-11.9C422.1,251.1,417.9,237.7,411.6,224.9z M342.8,227.2c-1.4,4.6-5.5,4.9-9.5,4.2
	c-4.9-0.9-9.1-3.5-13.1-6.2c-2.5-1.7-6-3.4-4.6-7c1.1-3,4.7-2.4,7.8-2.6c4.6,0.2,9.4,1,13.9,2.8C341.3,220,344.2,222.7,342.8,227.2z
	 M289.6,199.8c11.8,0.3,23.6,0.1,35.3,0.1c18.5-0.1,36.9,1.6,55.3,2.1c10.2,0.3,12.9-4.7,7.7-13.5c-13.7-23-33.9-38.7-57.2-50.9
	c-6.2-3.2-10.8-2.3-15.2,3.4c-11.9,15.4-22.8,31.5-32,48.7C279.7,196.6,281.5,199.6,289.6,199.8z M296.5,185.1
	c1.2-6.2,13.7-16.7,19.9-16.5c2.4,0.4,5,0.8,6.2,3.5c1.2,2.6,0.8,5.2-1.1,7.2c-5.7,5.9-12.9,9.1-20.8,10.5
	C297.9,190.3,295.8,188.7,296.5,185.1z M261.5,184.7c1.1,1.7,2.1,3.5,3.3,5.2c2,3,4,3.4,6.5,0.2c13.4-17.3,23.8-36.3,33.2-55.9
	c3.5-7.3-2.7-10.9-7.6-13.8c-18-11-37.3-19.2-58.2-22.7c-7.5-1.3-15.2-1.9-22.8-2.6c-2.6-0.2-5.1,0.2-6,3.9c1.3,2.5,2.5,5.4,4.2,7.9
	C231.6,131.7,245.8,158.7,261.5,184.7z M261.8,148.8c1.2-5.4,3.7-10,10.2-9c6.6,1,7.6,6.1,7,11.6c-0.7,6.2-2.6,12.1-6.3,17.1
	c-3.1,4.1-6.5,4.1-8.6-0.9c-1.8-4.2-2.5-8.8-2.8-14.1C261.4,152.3,261.4,150.5,261.8,148.8z"/>

</svg>